<mxfile host="65bd71144e">
    <diagram name="PÃ¡gina-1" id="SktaOMmHAM4-nnDcFxal">
        <mxGraphModel dx="759" dy="738" grid="1" gridSize="10" guides="1" tooltips="1" connect="1" arrows="1" fold="1" page="1" pageScale="1" pageWidth="827" pageHeight="1169" math="0" shadow="0">
            <root>
                <mxCell id="0"/>
                <mxCell id="1" parent="0"/>
                <mxCell id="vcNbmTIV7k52XS2TdqGL-1" value="Produto" style="swimlane;fontStyle=1;align=center;verticalAlign=top;childLayout=stackLayout;horizontal=1;startSize=26;horizontalStack=0;resizeParent=1;resizeParentMax=0;resizeLast=0;collapsible=1;marginBottom=0;whiteSpace=wrap;html=1;" parent="1" vertex="1">
                    <mxGeometry x="250" y="230" width="280" height="170" as="geometry"/>
                </mxCell>
                <mxCell id="vcNbmTIV7k52XS2TdqGL-2" value="&lt;div&gt;- id: int&lt;/div&gt;&lt;div&gt;- descricao: String&lt;/div&gt;&lt;div&gt;- preco: double&lt;/div&gt;&lt;div&gt;- fornecedor: String&lt;/div&gt;" style="text;strokeColor=none;fillColor=none;align=left;verticalAlign=top;spacingLeft=4;spacingRight=4;overflow=hidden;rotatable=0;points=[[0,0.5],[1,0.5]];portConstraint=eastwest;whiteSpace=wrap;html=1;" parent="vcNbmTIV7k52XS2TdqGL-1" vertex="1">
                    <mxGeometry y="26" width="280" height="74" as="geometry"/>
                </mxCell>
                <mxCell id="vcNbmTIV7k52XS2TdqGL-3" value="" style="line;strokeWidth=1;fillColor=none;align=left;verticalAlign=middle;spacingTop=-1;spacingLeft=3;spacingRight=3;rotatable=0;labelPosition=right;points=[];portConstraint=eastwest;strokeColor=inherit;" parent="vcNbmTIV7k52XS2TdqGL-1" vertex="1">
                    <mxGeometry y="100" width="280" height="8" as="geometry"/>
                </mxCell>
                <mxCell id="vcNbmTIV7k52XS2TdqGL-4" value="+ getter and setter&lt;div&gt;+ inserirProduto(descricao,preco,fornecedor): void&lt;/div&gt;" style="text;strokeColor=none;fillColor=none;align=left;verticalAlign=top;spacingLeft=4;spacingRight=4;overflow=hidden;rotatable=0;points=[[0,0.5],[1,0.5]];portConstraint=eastwest;whiteSpace=wrap;html=1;" parent="vcNbmTIV7k52XS2TdqGL-1" vertex="1">
                    <mxGeometry y="108" width="280" height="62" as="geometry"/>
                </mxCell>
            </root>
        </mxGraphModel>
    </diagram>
</mxfile>